<svg width="20" height="20" viewBox="0 0 20 20" fill="none" xmlns="http://www.w3.org/2000/svg">
<path d="M18.3334 13.3333C18.3334 14.4384 17.8944 15.4982 17.113 16.2796C16.3316 17.061 15.2718 17.5 14.1667 17.5H6.66669V7.5H8.33335V15.8333H14.1667C14.8297 15.8333 15.4656 15.5699 15.9345 15.1011C16.4033 14.6323 16.6667 13.9964 16.6667 13.3333V2.5H18.3334V13.3333ZM13.3334 6.66667V12.5H11.6667V6.66667C11.6667 6.00363 11.4033 5.36774 10.9345 4.8989C10.4656 4.43006 9.82973 4.16667 9.16669 4.16667H3.33335V17.5H1.66669V2.5H9.16669C10.2718 2.5 11.3316 2.93899 12.113 3.72039C12.8944 4.50179 13.3334 5.5616 13.3334 6.66667Z" fill="white"/>
</svg>
