<svg width="20" height="20" viewBox="0 0 20 20" fill="none" xmlns="http://www.w3.org/2000/svg">
<path d="M12.9833 12C12.9833 13.65 11.65 14.9833 10 14.9833C8.35 14.9833 7.01666 13.65 7.01666 12C7.01666 10.35 8.35 9.01666 10 9.01666C11.65 9.01666 12.9833 10.35 12.9833 12Z" stroke="#C4BABA" stroke-width="1.2" stroke-linecap="round" stroke-linejoin="round"/>
<path d="M9.99999 18.8916C12.9417 18.8916 15.6833 17.1583 17.5917 14.1583C18.3417 12.9833 18.3417 11.0083 17.5917 9.83331C15.6833 6.83331 12.9417 5.09998 9.99999 5.09998C7.05832 5.09998 4.31666 6.83331 2.40833 9.83331C1.65833 11.0083 1.65833 12.9833 2.40833 14.1583C4.31666 17.1583 7.05832 18.8916 9.99999 18.8916Z" stroke="#C4BABA" stroke-width="1.2" stroke-linecap="round" stroke-linejoin="round"/>
</svg>
