<svg width="32" height="32" viewBox="0 0 32 32" fill="none" xmlns="http://www.w3.org/2000/svg">
<path d="M23.7467 5.96002C23.64 5.96002 23.5333 5.93335 23.44 5.88002C20.88 4.56002 18.6667 4.00002 16.0133 4.00002C13.3733 4.00002 10.8667 4.62669 8.58665 5.88002C8.26665 6.05335 7.86665 5.93335 7.67999 5.61335C7.59683 5.45741 7.57818 5.27507 7.62805 5.10553C7.67791 4.93598 7.79231 4.79277 7.94665 4.70669C10.4267 3.36002 13.1467 2.66669 16.0133 2.66669C18.8533 2.66669 21.3333 3.29335 24.0533 4.69335C24.3867 4.86669 24.5067 5.26669 24.3333 5.58669C24.2806 5.69784 24.1976 5.79184 24.0938 5.85789C23.99 5.92393 23.8697 5.95934 23.7467 5.96002ZM4.66665 12.96C4.54375 12.9612 4.42293 12.9282 4.31759 12.8649C4.21226 12.8016 4.12653 12.7103 4.06991 12.6012C4.01329 12.4921 3.988 12.3695 3.99684 12.2469C4.00568 12.1243 4.0483 12.0065 4.11999 11.9067C5.43999 10.04 7.11999 8.57335 9.11999 7.54669C13.3067 5.38669 18.6667 5.37335 22.8667 7.53335C24.8667 8.56002 26.5467 10.0134 27.8667 11.8667C27.9178 11.9383 27.9543 12.0194 27.9739 12.1052C27.9936 12.1911 27.996 12.2799 27.9812 12.3667C27.9663 12.4535 27.9344 12.5364 27.8872 12.6108C27.8401 12.6852 27.7788 12.7495 27.7067 12.8C27.4 13.0134 26.9867 12.9467 26.7733 12.64C25.6052 10.9876 24.0543 9.64263 22.2533 8.72002C18.4267 6.76002 13.5333 6.76002 9.71999 8.73335C7.90665 9.66669 6.38665 11 5.18665 12.68C5.07999 12.8667 4.87999 12.96 4.66665 12.96ZM13 29.0534C12.9126 29.0544 12.8259 29.0372 12.7455 29.0027C12.6651 28.9683 12.5928 28.9174 12.5333 28.8534C11.3733 27.6934 10.7467 26.9467 9.85332 25.3334C8.93332 23.6934 8.45332 21.6934 8.45332 19.5467C8.45332 15.5867 11.84 12.36 16 12.36C20.16 12.36 23.5467 15.5867 23.5467 19.5467C23.5467 19.92 23.2533 20.2134 22.88 20.2134C22.5067 20.2134 22.2133 19.92 22.2133 19.5467C22.2133 16.32 19.4267 13.6934 16 13.6934C12.5733 13.6934 9.78665 16.32 9.78665 19.5467C9.78665 21.4667 10.2133 23.24 11.0267 24.68C11.88 26.2134 12.4667 26.8667 13.4933 27.9067C13.7467 28.1734 13.7467 28.5867 13.4933 28.8534C13.3467 28.9867 13.1733 29.0534 13 29.0534ZM22.56 26.5867C20.9733 26.5867 19.5733 26.1867 18.4267 25.4C16.44 24.0534 15.2533 21.8667 15.2533 19.5467C15.2533 19.1734 15.5467 18.88 15.92 18.88C16.2933 18.88 16.5867 19.1734 16.5867 19.5467C16.5867 21.4267 17.5467 23.2 19.1733 24.2934C20.12 24.9334 21.2267 25.24 22.56 25.24C22.88 25.24 23.4133 25.2 23.9466 25.1067C24.3067 25.04 24.6533 25.28 24.72 25.6534C24.7867 26.0134 24.5466 26.36 24.1733 26.4267C23.4133 26.5734 22.7467 26.5867 22.56 26.5867ZM19.88 29.3334C19.8267 29.3334 19.76 29.32 19.7067 29.3067C17.5867 28.72 16.2 27.9334 14.7467 26.5067C13.8259 25.5972 13.0957 24.5132 12.5989 23.3181C12.1021 22.1231 11.8486 20.8409 11.8533 19.5467C11.8533 17.3867 13.6933 15.6267 15.96 15.6267C18.2267 15.6267 20.0667 17.3867 20.0667 19.5467C20.0667 20.9734 21.3067 22.1334 22.84 22.1334C24.3733 22.1334 25.6133 20.9734 25.6133 19.5467C25.6133 14.52 21.28 10.44 15.9467 10.44C12.16 10.44 8.69332 12.5467 7.13332 15.8134C6.61332 16.8934 6.34665 18.16 6.34665 19.5467C6.34665 20.5867 6.43999 22.2267 7.23999 24.36C7.37332 24.7067 7.19999 25.0934 6.85332 25.2134C6.50665 25.3467 6.11999 25.16 5.99999 24.8267C5.35635 23.1407 5.02648 21.3513 5.02665 19.5467C5.02665 17.9467 5.33332 16.4934 5.93332 15.2267C7.70665 11.5067 11.64 9.09335 15.9467 9.09335C22.0133 9.09335 26.9467 13.7734 26.9467 19.5334C26.9467 21.6934 25.1067 23.4534 22.84 23.4534C20.5733 23.4534 18.7333 21.6934 18.7333 19.5334C18.7333 18.1067 17.4933 16.9467 15.96 16.9467C14.4267 16.9467 13.1867 18.1067 13.1867 19.5334C13.1867 21.8134 14.0667 23.9467 15.68 25.5467C16.9467 26.8 18.16 27.4934 20.04 28.0134C20.4 28.1067 20.6 28.48 20.5067 28.8267C20.44 29.1334 20.16 29.3334 19.88 29.3334Z" fill="white"/>
</svg>
