<svg width="20" height="20" viewBox="0 0 20 20" fill="none" xmlns="http://www.w3.org/2000/svg">
<path d="M18.3083 15.275C18.3083 15.575 18.2417 15.8833 18.1 16.1833C17.9583 16.4833 17.775 16.7666 17.5333 17.0333C17.125 17.4833 16.675 17.8083 16.1667 18.0166C15.6667 18.225 15.125 18.3333 14.5417 18.3333C13.6917 18.3333 12.7833 18.1333 11.825 17.725C10.8667 17.3166 9.90832 16.7666 8.95832 16.075C7.99999 15.375 7.09166 14.6 6.22499 13.7416C5.36666 12.875 4.59166 11.9666 3.89999 11.0166C3.21666 10.0666 2.66666 9.11663 2.26666 8.17496C1.86666 7.22496 1.66666 6.31663 1.66666 5.44996C1.66666 4.88329 1.76666 4.34163 1.96666 3.84163C2.16666 3.33329 2.48332 2.86663 2.92499 2.44996C3.45832 1.92496 4.04166 1.66663 4.65832 1.66663C4.89166 1.66663 5.12499 1.71663 5.33332 1.81663C5.54999 1.91663 5.74166 2.06663 5.89166 2.28329L7.82499 5.00829C7.97499 5.21663 8.08332 5.40829 8.15832 5.59163C8.23332 5.76663 8.27499 5.94163 8.27499 6.09996C8.27499 6.29996 8.21666 6.49996 8.09999 6.69163C7.99166 6.88329 7.83332 7.08329 7.63332 7.28329L6.99999 7.94163C6.90832 8.03329 6.86666 8.14163 6.86666 8.27496C6.86666 8.34163 6.87499 8.39996 6.89166 8.46663C6.91666 8.53329 6.94166 8.58329 6.95832 8.63329C7.10832 8.90829 7.36666 9.26663 7.73332 9.69996C8.10832 10.1333 8.50832 10.575 8.94166 11.0166C9.39166 11.4583 9.82499 11.8666 10.2667 12.2416C10.7 12.6083 11.0583 12.8583 11.3417 13.0083C11.3833 13.025 11.4333 13.05 11.4917 13.075C11.5583 13.1 11.625 13.1083 11.7 13.1083C11.8417 13.1083 11.95 13.0583 12.0417 12.9666L12.675 12.3416C12.8833 12.1333 13.0833 11.975 13.275 11.875C13.4667 11.7583 13.6583 11.7 13.8667 11.7C14.025 11.7 14.1917 11.7333 14.375 11.8083C14.5583 11.8833 14.75 11.9916 14.9583 12.1333L17.7167 14.0916C17.9333 14.2416 18.0833 14.4166 18.175 14.625C18.2583 14.8333 18.3083 15.0416 18.3083 15.275Z" stroke="#C4BABA" stroke-width="1.2" stroke-miterlimit="10"/>
</svg>
